<mxfile host="app.diagrams.net" modified="2024-01-24T13:43:50.952Z" agent="Mozilla/5.0 (X11; Linux x86_64) AppleWebKit/537.36 (KHTML, like Gecko) Chrome/116.0.5845.1077 YaBrowser/23.9.1.1077 Yowser/2.5 Safari/537.36" version="22.1.18" etag="NZdAIswo7eisYz3fbFlw" type="github">
  <diagram name="Страница — 1" id="8NAEWc9citeas5K4F-mw">
    <mxGraphModel>
      <root>
        <mxCell id="0" />
        <mxCell id="1" parent="0" />
      </root>
    </mxGraphModel>
  </diagram>
</mxfile>
